  <svg width="100pt" height="100pt" version="1.1" viewBox="0 0 1200 1200" xmlns="http://www.w3.org/2000/svg">
                <path d="m1027.4 602.34c-4.9805-12.301-12.301-23.309-21.75-32.762l-46.41-46.379c-9.4492-9.4492-20.461-16.77-32.762-21.75-11.852-4.8008-24.391-7.2617-37.23-7.2617-12.84 0-25.379 2.4297-37.23 7.2617-12.301 4.9805-23.309 12.301-32.762 21.75l-300.42 300.39c-3.7188 3.7188-5.7891 8.7617-5.7891 14.012v158.4c0 10.949 8.8789 19.801 19.801 19.801h158.4c5.25 0 10.289-2.1016 14.012-5.7891l300.39-300.39c9.4492-9.4492 16.77-20.461 21.75-32.762 4.8008-11.852 7.2617-24.391 7.2617-37.23-0.03125-12.867-2.4648-25.41-7.2617-37.289zm-344.34 373.86h-130.41v-90.809l45.391 45.391c3.8711 3.8711 8.9414 5.7891 14.012 5.7891s10.141-1.9219 14.012-5.7891c7.7383-7.7383 7.7383-20.281 0-27.988l-65.227-65.191 249.21-249.21 130.41 130.41zm294.6-294.6-9.2109 9.2109-130.41-130.41 9.2109-9.2109c23.16-23.16 60.84-23.16 84 0l46.41 46.414c11.219 11.219 17.398 26.129 17.398 42-0.027344 15.867-6.1758 30.777-17.398 42z" fill="#035f1c"/>
                <path d="m945.63 976.2h-154.62c-10.949 0-19.801 8.8789-19.801 19.801s8.8516 19.801 19.801 19.801h154.62c10.949 0 19.801-8.8789 19.801-19.801s-8.8789-19.801-19.801-19.801z" fill="#035f1c"/>
                <path d="m453.69 976.2h-158.4c-32.762 0-59.398-26.641-59.398-59.398l-0.003906-633.6c0-32.762 26.641-59.398 59.398-59.398h475.2c32.762 0 59.398 26.641 59.398 59.398v158.4c0 10.949 8.8516 19.801 19.801 19.801s19.801-8.8516 19.801-19.801v-158.4c0-13.352-2.6094-26.309-7.8008-38.551-4.9805-11.789-12.121-22.379-21.211-31.469-9.0898-9.0898-19.68-16.23-31.469-21.211-12.211-5.1602-25.172-7.8008-38.551-7.8008h-475.2c-13.352 0-26.309 2.6094-38.551 7.8008-11.789 4.9805-22.379 12.121-31.469 21.211-9.0898 9.0898-16.23 19.68-21.211 31.469-5.1602 12.211-7.8008 25.199-7.8008 38.551v633.6c0 13.352 2.6094 26.309 7.8008 38.551 4.9805 11.789 12.121 22.379 21.211 31.469 9.0898 9.0898 19.68 16.23 31.469 21.211 12.211 5.1602 25.199 7.8008 38.551 7.8008h158.4c10.949 0 19.801-8.8516 19.801-19.801 0.003907-10.953-8.8164-19.832-19.766-19.832z" fill="#035f1c"/>
                <path d="m334.89 580.2c-10.949 0-19.801 8.8516-19.801 19.801s8.8516 19.801 19.801 19.801h237.6c10.949 0 19.801-8.8516 19.801-19.801s-8.8516-19.801-19.801-19.801z" fill="#035f1c"/>
                <path d="m750.69 402c0-10.949-8.8789-19.801-19.801-19.801h-396c-10.949 0-19.801 8.8516-19.801 19.801s8.8516 19.801 19.801 19.801h396c10.949 0 19.801-8.8789 19.801-19.801z" fill="#035f1c"/>
               </svg>