  <svg width="100pt" height="100pt" version="1.1" viewBox="0 0 1200 1200" xmlns="http://www.w3.org/2000/svg">
                <path d="m648.43 142.59h102.67c27.77 0 50.352 22.586 50.352 50.352v30.961c0 5.0156 4.0781 9.0977 9.0977 9.0977 5.0156 0 9.0977-4.0781 9.0977-9.0977v-30.961c0-18.312-7.1289-35.52-20.09-48.48-12.961-12.961-30.168-20.09-48.48-20.09h-102.67c-5.0156 0-9.0977 4.0781-9.0977 9.0977 0 5.0156 4.0781 9.1211 9.1211 9.1211z" fill="#035f1c"/>
                <path d="m502.11 142.59h86.832c5.0156 0 9.0977-4.0781 9.0977-9.0977 0-5.0156-4.0781-9.0977-9.0977-9.0977h-86.832c-5.0156 0-9.0977 4.0781-9.0977 9.0977 0 5.0156 4.082 9.0977 9.0977 9.0977z" fill="#035f1c"/>
                <path d="m84.359 862.56c5.0156 0 9.0977-4.0781 9.0977-9.0977v-521.76h187.2c5.0156 0 9.0977-4.0781 9.0977-9.0977v-180h138.91c5.0156 0 9.0977-4.0781 9.0977-9.0977 0-5.0156-4.0781-9.0977-9.0977-9.0977h-148.01-0.45703c-0.070313 0-0.14453 0-0.21484 0.023438-0.070313 0-0.14453 0-0.21484 0.023437-0.12109 0-0.21484 0.023437-0.33594 0.046875-0.023438 0-0.070313 0-0.097656 0.023438-0.12109 0.023437-0.26563 0.046874-0.38281 0.070312h-0.046875c-0.14453 0.023438-0.26562 0.046875-0.40625 0.097656h-0.023438c-0.43359 0.097656-0.83984 0.23828-1.2227 0.38281-0.12109 0.046875-0.23828 0.097656-0.38281 0.16797 0 0-0.023438 0-0.023438 0.023437-0.12109 0.046875-0.23828 0.12109-0.33594 0.16797-0.023438 0-0.046875 0.023437-0.046875 0.023437-0.097656 0.046875-0.21484 0.12109-0.3125 0.16797-0.023438 0.023438-0.046875 0.023438-0.097656 0.046875-0.097657 0.046875-0.19141 0.12109-0.26563 0.16797-0.046874 0.023437-0.070312 0.046875-0.12109 0.070312-0.070313 0.046875-0.16797 0.097656-0.23828 0.16797-0.046876 0.023437-0.097657 0.070313-0.14453 0.097656-0.070312 0.046875-0.14453 0.097657-0.21484 0.14453-0.046874 0.046876-0.097656 0.070313-0.14453 0.12109-0.070312 0.046875-0.12109 0.097656-0.19141 0.14453-0.046875 0.046874-0.097656 0.097656-0.16797 0.14453-0.046875 0.046875-0.12109 0.097656-0.16797 0.14453-0.023438 0.023438-0.070313 0.046875-0.097657 0.097656l-196.3 189.11c-0.023438 0.023437-0.023438 0.046875-0.046875 0.046875-0.070313 0.070312-0.12109 0.12109-0.19141 0.19141-0.046875 0.046875-0.097657 0.097656-0.14453 0.14453-0.070313 0.070312-0.12109 0.12109-0.16797 0.19141-0.046875 0.046875-0.070313 0.097656-0.12109 0.14453-0.070313 0.070313-0.12109 0.14453-0.19141 0.21484-0.023438 0.046875-0.070313 0.070312-0.097657 0.12109-0.070312 0.097657-0.14453 0.19141-0.19141 0.28906-0.023437 0.023437-0.046875 0.046875-0.046875 0.070313-0.070312 0.12109-0.16797 0.23828-0.23828 0.35937-0.86328 1.3906-1.3438 3.0234-1.3438 4.7773v530.86c0.046875 4.9961 4.1016 9.0742 9.1406 9.0742zm22.562-549.07 164.64-158.62v158.62z" fill="#035f1c"/>
                <path d="m810.55 760.99c-5.0156 0-9.0977 4.0781-9.0977 9.0977v233.76c0 29.543-24.023 53.566-53.566 53.566h-604.08c-27.77 0-50.352-22.586-50.352-50.352v-92.039c0-5.0156-4.0781-9.0977-9.0977-9.0977-5.0156 0-9.0977 4.0781-9.0977 9.0977v92.039c0 18.312 7.1289 35.52 20.09 48.48 12.961 12.961 30.168 20.09 48.48 20.09h604.08c19.176 0 37.199-7.4648 50.734-21.023 13.559-13.559 21.023-31.586 21.023-50.734v-233.76c-0.019531-5.0469-4.1016-9.125-9.1172-9.125z" fill="#035f1c"/>
                <path d="m345.14 377.95c-3.6016-3.5039-9.3594-3.457-12.863 0.14453l-82.871 84.695-44.836-45.191c-3.5273-3.5742-9.3125-3.6016-12.863-0.046874-3.5742 3.5273-3.6016 9.3125-0.046876 12.863l51.336 51.742c1.7031 1.7266 4.0312 2.6875 6.457 2.6875h0.023438c2.4492 0 4.7773-0.98438 6.4805-2.7344l89.328-91.297c3.5039-3.6016 3.4531-9.3594-0.14453-12.863z" fill="#035f1c"/>
                <path d="m345.14 521.26c-3.6016-3.5039-9.3594-3.457-12.863 0.14453l-82.871 84.695-44.832-45.191c-3.5273-3.5742-9.3125-3.6016-12.863-0.046875-3.5742 3.5273-3.6016 9.3125-0.046875 12.863l51.336 51.742c1.7031 1.7266 4.0312 2.6875 6.457 2.6875h0.023437c2.4492 0 4.7773-0.98438 6.4805-2.7344l89.328-91.297c3.5-3.5781 3.4492-9.3359-0.14844-12.863z" fill="#035f1c"/>
                <path d="m185.86 908.3 51.336 51.742c1.7031 1.7266 4.0312 2.6875 6.457 2.6875h0.023437c2.4492 0 4.7773-0.98438 6.4805-2.7344l89.328-91.297c3.5039-3.6016 3.457-9.3594-0.14453-12.863-3.6016-3.5039-9.3594-3.457-12.863 0.14453l-82.871 84.695-44.832-45.191c-3.5273-3.5742-9.3125-3.6016-12.863-0.046875-3.5781 3.5273-3.6016 9.2852-0.050781 12.863z" fill="#035f1c"/>
                <path d="m191.69 811.05c1.7773 1.7773 4.1055 2.6641 6.4336 2.6641s4.6562-0.88672 6.4336-2.6641l51.961-51.961 51.961 51.961c1.7773 1.7773 4.1055 2.6641 6.4336 2.6641s4.6562-0.88672 6.4336-2.6641c3.5508-3.5508 3.5508-9.3125 0-12.863l-51.961-51.961 51.961-51.961c3.5508-3.5508 3.5508-9.3125 0-12.863s-9.3125-3.5508-12.863 0l-51.961 51.961-51.961-51.961c-3.5508-3.5508-9.3125-3.5508-12.863 0-3.5508 3.5508-3.5508 9.3125 0 12.863l51.961 51.961-51.961 51.961c-3.5586 3.5508-3.5586 9.3125-0.007812 12.863z" fill="#035f1c"/>
                <path d="m395.06 953.64c0 5.0156 4.0781 9.0977 9.0977 9.0977h163.78c5.0156 0 9.0977-4.0781 9.0977-9.0977 0-5.0156-4.0781-9.0977-9.0977-9.0977h-163.78c-5.0156 0-9.0977 4.0586-9.0977 9.0977z" fill="#035f1c"/>
                <path d="m636.29 944.54c-5.0156 0-9.0977 4.0781-9.0977 9.0977 0 5.0156 4.0781 9.0977 9.0977 9.0977h66.023c5.0156 0 9.0977-4.0781 9.0977-9.0977 0-5.0156-4.0781-9.0977-9.0977-9.0977z" fill="#035f1c"/>
                <path d="m567.94 835.34h-121.3c-5.0156 0-9.0977 4.0781-9.0977 9.0977 0 5.0156 4.0781 9.0977 9.0977 9.0977h121.3c5.0156 0 9.0977-4.0781 9.0977-9.0977-0.003906-5.0156-4.082-9.0977-9.0977-9.0977z" fill="#035f1c"/>
                <path d="m702.31 853.54c5.0156 0 9.0977-4.0781 9.0977-9.0977 0-5.0156-4.0781-9.0977-9.0977-9.0977h-41.762c-5.0156 0-9.0977 4.0781-9.0977 9.0977 0 5.0156 4.0781 9.0977 9.0977 9.0977z" fill="#035f1c"/>
                <path d="m547.66 899.04c0 5.0156 4.0781 9.0977 9.0977 9.0977h151.63c5.0156 0 9.0977-4.0781 9.0977-9.0977 0-5.0156-4.0781-9.0977-9.0977-9.0977h-151.63c-5.043 0.003906-9.0977 4.082-9.0977 9.0977z" fill="#035f1c"/>
                <path d="m424.75 473.86c0.26562 0.023437 0.52734 0.023437 0.79297 0.023437 4.6797 0 8.6406-3.5742 9.0469-8.3281 4.6328-54.215 26.426-104.3 63.023-144.79 3.3594-3.7188 3.0703-9.4805-0.64844-12.863-3.7188-3.3594-9.4805-3.0703-12.863 0.64844-19.129 21.168-34.656 45.07-46.129 71.09-11.809 26.762-19.055 55.129-21.551 84.359-0.38672 5.0156 3.3086 9.4336 8.3281 9.8633z" fill="#035f1c"/>
                <path d="m816.82 337.27c1.7539 1.5859 3.9102 2.3516 6.0977 2.3516 2.4727 0 4.9688-1.0078 6.7422-3 3.3594-3.7188 3.0703-9.4805-0.64844-12.863-32.137-29.039-71.664-47.785-114.31-54.168-4.9688-0.74219-9.6016 2.6875-10.344 7.6562-0.74219 4.9688 2.6875 9.6016 7.6562 10.344 39.121 5.8789 75.359 23.039 104.81 49.68z" fill="#035f1c"/>
                <path d="m663.07 267.98c-54.527 4.6562-105.07 29.449-142.32 69.816-37.465 40.609-58.105 93.406-58.105 148.7 0 40.535 11.137 80.113 32.23 114.5 20.496 33.406 49.586 60.793 84.121 79.199 15.527 8.2812 32.039 14.641 49.055 18.961 17.543 4.4414 35.688 6.6719 53.93 6.6719 29.617 0 58.344-5.8086 85.367-17.23 26.113-11.039 49.586-26.855 69.719-46.992 20.137-20.137 35.953-43.609 46.992-69.719 11.449-27.047 17.23-55.777 17.23-85.367 0-28.008-5.207-55.32-15.48-81.121-1.8711-4.6797-7.1523-6.9375-11.832-5.0898-4.6797 1.8477-6.9375 7.1523-5.0898 11.832 9.4336 23.664 14.207 48.695 14.207 74.375 0 110.9-90.238 201.14-201.14 201.14-32.93 0-65.566-8.1367-94.441-23.496-65.809-35.062-106.7-103.13-106.7-177.65 0-103.56 80.734-191.59 183.77-200.4 5.0156-0.43359 8.7109-4.8242 8.3047-9.8398-0.375-5.0156-4.7891-8.7148-9.8086-8.3047z" fill="#035f1c"/>
                <path d="m1110.6 878.73-83.781-83.375c-3.5508-3.5508-9.3359-3.5273-12.863 0.023437-3.5508 3.5508-3.5273 9.3359 0.023437 12.863l83.762 83.352c5.6875 5.6875 8.832 13.246 8.832 21.312 0 8.0391-3.1445 15.625-8.832 21.312s-13.246 8.832-21.312 8.832c-8.0391 0-15.625-3.1445-21.312-8.832l-112.08-112.08c-11.734-11.734-11.734-30.863 0-42.602 11.734-11.734 30.863-11.734 42.602 0 3.5508 3.5508 9.3125 3.5508 12.863 0 3.5508-3.5508 3.5508-9.3125 0-12.863-17.375-17.375-44.785-18.719-63.719-4.0781l-73.922-73.922c-1.0078-1.0078-2.1836-1.7266-3.457-2.1602 23.93-21.098 43.969-46.367 59.062-74.688 10.031-18.84 17.762-38.855 22.992-59.496 5.375-21.266 8.1133-43.273 8.1133-65.398 0-35.902-7.0312-70.754-20.902-103.56-6.6719-15.77-14.93-30.961-24.527-45.191-9.5039-14.09-20.449-27.336-32.473-39.359-12.047-12.047-25.273-22.969-39.359-32.473-14.23-9.6016-29.426-17.855-45.191-24.527-32.809-13.871-67.656-20.902-103.56-20.902-33.984 0-67.078 6.3125-98.398 18.793-4.6797 1.8477-6.9375 7.1523-5.0898 11.832 1.8477 4.6797 7.1523 6.9375 11.832 5.0898 29.16-11.617 60-17.496 91.656-17.496 136.66 0 247.82 111.17 247.82 247.82 0 40.559-10.008 80.809-28.945 116.35-43.199 81.098-127.08 131.47-218.88 131.47-127.61 0-236.09-99.457-246.94-226.44-0.43359-5.0156-4.8242-8.7109-9.8398-8.2812-5.0156 0.43359-8.7109 4.8242-8.2812 9.8398 5.6406 66.145 35.734 127.44 84.695 172.61 49.246 45.457 113.3 70.465 180.36 70.465 24.938 0 49.609-3.457 73.344-10.246 23.016-6.5742 45.047-16.297 65.52-28.848 8.6875-5.3281 17.039-11.137 25.031-17.398 0.28906 1.8477 1.1289 3.6484 2.5664 5.0625l74.734 74.734c-10.945 18.527-8.4492 42.84 7.4414 58.754l112.08 112.08c9.1211 9.1211 21.266 14.16 34.176 14.16s25.055-5.0156 34.176-14.16c9.1211-9.1211 14.16-21.266 14.16-34.176-0.023437-12.922-5.0391-25.066-14.184-34.211z" fill="#035f1c"/>
                <path d="m646.92 420.34c-14.258 3.4336-28.152 8.543-41.258 15.168-12.863 6.5039-25.031 14.496-36.168 23.762-11.062 9.1914-21.098 19.656-29.832 31.078-3.0469 3.9844-2.2812 9.6953 1.7031 12.742 1.6562 1.2734 3.6016 1.8711 5.5195 1.8711 2.7344 0 5.4492-1.2227 7.2227-3.5742 33.145-43.344 83.375-68.184 137.86-68.184 50.23 0 97.969 21.77 130.95 59.711 3.2891 3.793 9.0469 4.1992 12.84 0.88672 3.793-3.2891 4.1992-9.0469 0.88672-12.84-8.7852-10.105-18.625-19.297-29.305-27.359-10.754-8.1133-22.367-15.121-34.559-20.785-25.414-11.832-52.609-17.832-80.832-17.832-15.188 0.027343-30.355 1.8281-45.02 5.3555z" fill="#035f1c"/>
                <path d="m632.4 469.25c-0.64844-4.9922-5.2305-8.4961-10.199-7.8477-4.9922 0.64844-8.4961 5.2305-7.8477 10.199 2.4492 18.672 11.617 35.879 25.801 48.406 14.305 12.648 32.711 19.609 51.84 19.609 19.105 0 37.488-6.9609 51.816-19.586 14.184-12.504 23.352-29.688 25.824-48.336 0.67188-4.9922-2.832-9.5508-7.8242-10.223-4.9922-0.67188-9.5508 2.832-10.223 7.8242-3.9375 29.711-29.543 52.129-59.594 52.129-30.07 0.027344-55.703-22.414-59.594-52.176z" fill="#035f1c"/>
                <path d="m730.89 456.96c0-5.0156-4.0781-9.0977-9.0977-9.0977-5.0156 0-9.0977 4.0781-9.0977 9.0977 0 9.9375-8.0898 18.023-18.023 18.023-9.9375 0-18.023-8.0898-18.023-18.023 0-5.0156-4.0781-9.0977-9.0977-9.0977-5.0156 0-9.0977 4.0781-9.0977 9.0977 0 19.969 16.246 36.215 36.215 36.215 19.977 0 36.223-16.246 36.223-36.215z" fill="#035f1c"/>
               </svg>