            <svg width="100pt" height="100pt" version="1.1" viewBox="0 0 1200 1200" xmlns="http://www.w3.org/2000/svg">
                <path d="m1101.9 206.04c-4.5586-10.777-11.09-20.473-19.391-28.777-8.3047-8.3047-18-14.832-28.777-19.391-11.16-4.7266-23.039-7.1289-35.258-7.1289h-836.88c-12.215 0-24.07 2.3984-35.258 7.1289-10.777 4.5586-20.473 11.09-28.777 19.391-8.3047 8.3047-14.832 18-19.391 28.777-4.7266 11.16-7.1289 23.039-7.1289 35.258v477.94c0 12.215 2.3984 24.07 7.1289 35.258 4.5586 10.777 11.09 20.473 19.391 28.777 8.3047 8.3047 18 14.832 28.777 19.391 11.16 4.7266 23.039 7.1289 35.258 7.1289h836.88c12.215 0 24.07-2.3984 35.258-7.1289 10.777-4.5586 20.473-11.09 28.777-19.391 8.3047-8.3047 14.832-18 19.391-28.777 4.7266-11.16 7.1289-23.039 7.1289-35.258v-477.94c0-12.219-2.3984-24.098-7.1289-35.258zm-83.422 586.11h-836.88c-40.199 0-72.887-32.711-72.887-72.887l-0.003906-30.699h100.41c4.8711 0 8.832-3.9609 8.832-8.832 0-4.8711-3.9609-8.832-8.832-8.832h-100.41v-429.6c0-40.199 32.711-72.887 72.887-72.887h836.88c40.199 0 72.887 32.711 72.887 72.887v429.57h-158.73c-4.8711 0-8.832 3.9609-8.832 8.832 0 4.8711 3.9609 8.832 8.832 8.832h158.73v30.695c0.003906 40.207-32.684 72.918-72.883 72.918z" fill="#000000
#000000"/>
                <path d="m891.41 670.87h-635.5c-4.8711 0-8.832 3.9609-8.832 8.832s3.9609 8.832 8.832 8.832h635.5c4.8711 0 8.832-3.9609 8.832-8.832s-3.957-8.832-8.832-8.832z" fill="#000000
#000000"/>
                <path d="m603.07 724.34c4.8711 0 8.832-3.9609 8.832-8.832 0-4.8711-3.9609-8.832-8.832-8.832-16.152 0-29.305 13.152-29.305 29.305s13.152 29.305 29.305 29.305c4.8711 0 8.832-3.9609 8.832-8.832 0-4.8711-3.9609-8.832-8.832-8.832-6.4336 0-11.641-5.2305-11.641-11.641-0.023438-6.4336 5.2109-11.641 11.641-11.641z" fill="#000000
#000000"/>
                <path d="m482.45 946.3v-106.18c0-4.8711-3.9609-8.832-8.832-8.832-4.8711 0-8.832 3.9609-8.832 8.832v106.18c0 4.8711 3.9609 8.832 8.832 8.832 4.8711 0 8.832-3.9609 8.832-8.832z" fill="#000000
#000000"/>
                <path d="m735.46 946.3v-106.18c0-4.8711-3.9609-8.832-8.832-8.832s-8.832 3.9609-8.832 8.832v106.18c0 4.8711 3.9609 8.832 8.832 8.832s8.832-3.9609 8.832-8.832z" fill="#000000
#000000"/>
                <path d="m774.48 978.65h-292.49c-4.8711 0-8.832 3.9609-8.832 8.832 0 4.8711 3.9609 8.832 8.832 8.832h292.49c21.312 0 39.145 15.191 43.246 35.305h-89.23c-4.8711 0-8.832 3.9609-8.832 8.832 0 4.8711 3.9609 8.832 8.832 8.832h98.953c4.8711 0 8.832-3.9609 8.832-8.832 0-16.512-6.4336-32.016-18.098-43.68-11.688-11.691-27.191-18.121-43.703-18.121z" fill="#000000
#000000"/>
                <path d="m670.8 1031.6h-296.98c4.1055-20.113 21.938-35.305 43.246-35.305h21.938c4.8711 0 8.832-3.9609 8.832-8.832 0-4.8711-3.9609-8.832-8.832-8.832h-21.938c-16.512 0-32.016 6.4336-43.68 18.098-11.664 11.664-18.098 27.191-18.098 43.68 0 4.8711 3.9609 8.832 8.832 8.832h306.68c4.8711 0 8.832-3.9609 8.832-8.832 0-4.875-3.9609-8.8086-8.832-8.8086z" fill="#000000
#000000"/>
                <path d="m603.07 620.47h391.37c4.8711 0 8.832-3.9609 8.832-8.832v-237.05c0-4.8711-3.9609-8.832-8.832-8.832s-8.832 3.9609-8.832 8.832v228.24h-373.73v-349.92h373.7v68.039c0 4.8711 3.9609 8.832 8.832 8.832 4.8711 0 8.832-3.9609 8.832-8.832v-76.871c0-4.8711-3.9609-8.832-8.832-8.832h-391.34c-4.8711 0-8.832 3.9609-8.832 8.832v367.56c0 4.8984 3.9609 8.8359 8.832 8.8359z" fill="#000000
#000000"/>
                <path d="m944.64 300.82h-284.5c-4.8711 0-8.832 3.9609-8.832 8.832 0 4.8711 3.9609 8.832 8.832 8.832h284.5c4.8711 0 8.832-3.9609 8.832-8.832 0-4.8711-3.9609-8.832-8.832-8.832z" fill="#000000
#000000"/>
                <path d="m944.64 347.09h-284.5c-4.8711 0-8.832 3.9609-8.832 8.832s3.9609 8.832 8.832 8.832h284.5c4.8711 0 8.832-3.9609 8.832-8.832 0-4.875-3.9609-8.832-8.832-8.832z" fill="#000000
#000000"/>
                <path d="m944.64 393.36h-284.5c-4.8711 0-8.832 3.9609-8.832 8.832s3.9609 8.832 8.832 8.832h284.5c4.8711 0 8.832-3.9609 8.832-8.832s-3.9609-8.832-8.832-8.832z" fill="#000000
#000000"/>
                <path d="m944.64 439.63h-284.5c-4.8711 0-8.832 3.9609-8.832 8.832s3.9609 8.832 8.832 8.832h284.5c4.8711 0 8.832-3.9609 8.832-8.832s-3.9609-8.832-8.832-8.832z" fill="#000000
#000000"/>
                <path d="m944.64 532.15h-284.5c-4.8711 0-8.832 3.9609-8.832 8.832s3.9609 8.832 8.832 8.832h284.5c4.8711 0 8.832-3.9609 8.832-8.832s-3.9609-8.832-8.832-8.832z" fill="#000000
#000000"/>
                <path d="m495.29 499.18c4.8711 0 8.832-3.9609 8.832-8.832v-245.4c0-4.8711-3.9609-8.832-8.832-8.832h-245.4c-4.8711 0-8.832 3.9609-8.832 8.832v19.559l-33.742-12.625c-3.1445-1.1758-6.6719-0.45703-9.1211 1.8242-2.4492 2.3047-3.3828 5.7852-2.3984 9l39.023 129c0.91016 2.9766 3.3125 5.2578 6.2656 6v92.641c0 4.8711 3.9609 8.832 8.832 8.832zm-236.57-245.4h227.76v227.76h-227.76v-92.375c0-1.2734-0.26562-2.4727-0.74219-3.5508 4.9453-5.1133 13.223-13.32 27.098-26.426l22.754 22.871c1.7266 1.7266 3.9844 2.5938 6.2656 2.5938 2.2578 0 4.5117-0.86328 6.2148-2.5664 3.457-3.4336 3.4805-9.0234 0.023437-12.48l-22.391-22.512c19.031-17.734 36.625-33.648 36.816-33.816 2.2812-2.0625 3.3359-5.1836 2.7344-8.207-0.57422-3.0234-2.6875-5.5195-5.5664-6.6016l-73.199-27.359zm-40.895 20.879 94.344 35.258c-7.7266 7.0547-18.695 17.137-29.832 27.551-17.711 16.559-28.535 27.121-35.258 33.984z" fill="#000000
#000000"/>
                <path d="m398.45 441.05c-4.8711 0-8.832 3.9609-8.832 8.832s3.9609 8.832 8.832 8.832h52.586c4.8711 0 8.832-3.9609 8.832-8.832s-3.9609-8.832-8.832-8.832h-18.648v-117.43h18.648c4.8711 0 8.832-3.9609 8.832-8.832s-3.9609-8.832-8.832-8.832h-52.586c-4.8711 0-8.832 3.9609-8.832 8.832s3.9609 8.832 8.832 8.832h16.297v117.43z" fill="#000000
#000000"/>
               </svg>