 <svg width="100pt" height="100pt" version="1.1" viewBox="0 0 1200 1200" xmlns="http://www.w3.org/2000/svg">
                    <path d="m646.08 692.4h-452.43l191.55-191.55c9.0312-9.0312 9.0312-23.641 0-32.672s-23.641-9.0312-32.672 0l-231 231c-9.0312 9.0312-9.0312 23.641 0 32.672l231 231c4.5 4.5 10.41 6.7812 16.32 6.7812s11.82-2.25 16.32-6.7812c9.0312-9.0312 9.0312-23.641 0-32.672l-191.52-191.57h452.43c12.75 0 23.102-10.352 23.102-23.102s-10.352-23.102-23.102-23.102z" fill="#000000"/>
                    <path d="m1078.2 468.15-231-231c-9.0312-9.0312-23.641-9.0312-32.672 0s-9.0312 23.641 0 32.672l191.58 191.55h-452.43c-12.75 0-23.102 10.352-23.102 23.102s10.352 23.102 23.102 23.102h452.43l-191.55 191.58c-9.0312 9.0312-9.0312 23.641 0 32.672 4.5 4.5 10.41 6.7812 16.32 6.7812s11.82-2.25 16.32-6.7812l231-231c4.3203-4.3203 6.7812-10.199 6.7812-16.32 0-6.125-2.4297-12.004-6.7812-16.355z" fill="#000000"/>
                   </svg>